# xmcd
#
# Track frame offsets:
#	150
#	28040
#	46150
#	66622
#	85217
#	111975
#	132205
#	148565
#	167950
#	187252
#	205402
#	221045
#	232550
#
# Disc length: 3293 seconds
#
# Revision: 1
# Processed by: cddbd v1.5.1PL0 Copyright (c) Steve Scherf et al.
# Submitted via: CDex 1.50Beta5
#
DISCID=c40cdb0d
DTITLE=Re:Japan - 明日があるさ THE MOVIE マイエナジーセレクトトラック
DYEAR=2002
DGENRE=Pop
TTITLE0=Re:Japan/明日があるさ
TTITLE1=松山千春/大空と大地の中で
TTITLE2=RCサクセション/トランジスタ・ラジオ
TTITLE3=YMO/キミに、胸キュン
TTITLE4=H Jungle With t/WOW WAR TONIGHT〜時には起こせよムーヴメント〜
TTITLE5=BEGIN/ボトルニ本とチョコレート
TTITLE6=アン・ルイス/ラ・セゾン
TTITLE7=田村亮/存在
TTITLE8=浅香唯/C-Girl
TTITLE9=クラッシュギャルズ/炎の聖書
TTITLE10=沢田研二/勝手にしやがれ
TTITLE11=江利チエミ/カモンナ・マイ・ハウス
TTITLE12=ピンク・レディー/UFO
EXTD=
EXTT0=
EXTT1=
EXTT2=
EXTT3=
EXTT4=
EXTT5=
EXTT6=
EXTT7=
EXTT8=
EXTT9=
EXTT10=
EXTT11=
EXTT12=
PLAYORDER=
